<svg width="158" height="40" viewBox="0 0 158 40" fill="none" xmlns="http://www.w3.org/2000/svg">
<path d="M49.8626 27.2335C50.0196 26.7103 50.0196 26.2132 49.9935 25.6377C50.8829 25.8208 50.8306 27.155 49.8626 27.2335ZM44.1073 36.6514C44.1073 36.6514 43.9241 37.5932 43.3747 37.3316C42.8254 37.07 42.6946 36.2067 42.6946 36.2067C42.6946 36.2067 43.3486 36.4944 44.1073 36.6514ZM48.2407 38.1949C47.6128 39.2152 45.8862 38.0903 45.8862 38.0903C46.3833 37.6979 46.6972 37.0438 46.8018 36.2067C47.6913 36.259 48.9209 37.0961 48.2407 38.1949ZM41.2034 9.2348C40.497 8.94703 40.6802 6.74952 40.6802 6.74952C40.8633 7.74363 42.0405 8.44998 43.0608 7.84828C43.0608 7.84828 42.0144 9.57489 41.2034 9.2348ZM39.5814 26.3702C39.0582 26.4748 38.378 26.2394 37.9856 25.9516C36.7037 24.9575 36.1805 22.3414 36.0759 20.3009C36.6252 21.4519 37.4885 23.3094 39.0844 22.8123C39.6337 22.6553 40.2616 21.9228 40.2616 21.9228C40.7587 23.2832 41.1772 26.0824 39.5814 26.3702ZM48.2407 5.25835C48.7639 5.28451 49.2871 5.59844 49.2609 6.01701C49.2609 6.67104 48.6331 6.828 48.1622 6.77568C47.5082 6.72336 47.2204 6.3571 47.2204 5.96469C47.2466 5.51995 47.7175 5.23219 48.2407 5.25835ZM41.308 2.58994C42.0667 0.758675 44.0549 0.444745 44.0549 0.444745C42.5114 0.392423 37.6455 1.17725 37.2008 6.01701C37.0438 7.61283 37.6455 8.94703 38.2995 10.072C37.4624 9.44409 36.4944 8.3715 36.3375 6.95881C36.2067 5.78157 36.8345 4.00262 36.8345 4.00262C35.6573 5.38915 34.4016 7.11577 34.6893 9.47025C34.9509 11.6678 36.3898 13.1328 37.3839 14.3623C36.6514 14.0222 36.2067 13.656 35.5526 12.9496C35.7619 15.5657 36.5991 17.6063 38.4303 18.6004C36.0759 18.365 35.605 16.7168 34.9248 14.8594C34.4539 13.5513 33.6691 12.845 32.9627 12.034C34.0615 12.2695 34.6893 12.9497 35.2387 13.7606C34.8986 11.4846 33.2505 10.5167 30.9483 10.2028C31.9163 9.31329 33.5383 10.1766 34.2969 10.6213C34.2969 10.6213 33.826 9.67954 33.4074 9.2348C32.2825 8.0314 29.7972 8.31917 28.3061 8.81623C28.8293 7.87443 30.2943 7.16809 31.55 7.53434C30.7652 6.85416 29.8234 6.38327 28.62 6.30479C26.5533 6.17398 24.8005 7.2989 23.7802 8.08372C24.0419 6.74952 25.1144 6.2263 26.1086 5.6246C22.6292 5.04906 20.8764 7.22041 19.7253 9.36561C19.6207 8.0314 20.7717 6.54023 20.7717 6.54023C16.5075 8.29301 17.1354 13.0805 17.1354 13.0805C16.3506 12.6096 16.3767 10.8306 16.6383 10.0196C16.6383 10.0196 15.775 11.2492 15.7489 12.9758C15.7227 14.7548 16.9523 16.6383 16.9523 16.6383C15.6704 16.4552 14.8855 13.9176 14.8855 13.9176C14.1792 17.5016 17.24 20.4055 17.24 20.4055C15.8535 20.2485 14.6763 18.5481 14.6763 18.5481C15.1733 22.0798 18.2865 23.9895 18.2865 23.9895C17.3185 24.1988 15.8797 23.2047 15.8797 23.2047C17.0831 25.9254 18.862 27.2335 18.862 27.2335C17.7632 27.2858 16.6122 25.9778 16.6122 25.9778C16.5075 27.2335 17.2139 28.9078 17.2139 28.9078C16.0889 28.5154 15.775 26.9196 15.775 26.9196C14.8594 28.2014 15.0425 30.085 15.0425 30.085C13.9699 29.3787 14.0484 27.8614 14.0484 27.8614C13.002 28.3846 12.3741 30.4774 12.3741 30.4774C11.8509 29.3525 12.4003 28.0183 12.4003 28.0183C10.9352 28.3846 10.0196 30.1112 10.0196 30.1112C9.91498 29.0648 10.5952 27.809 10.5952 27.809C9.44408 27.8352 8.44997 29.4833 8.44997 29.4833C8.24068 28.4107 9.26095 27.2073 9.26095 27.2073C8.00523 27.0765 6.90647 28.4369 6.90647 28.4369C6.74951 27.1812 7.97907 26.2655 7.97907 26.2655C6.6187 25.9516 5.62459 27.1288 5.62459 27.1288C5.44146 25.8208 6.88031 24.9052 6.88031 24.9052C5.80772 24.4343 4.63048 25.4022 4.63048 25.4022C4.49967 24.068 5.99084 23.3094 5.99084 23.3094C5.07521 22.6815 3.89797 23.3094 3.89797 23.3094C4.0811 22.2106 5.46762 21.9228 5.46762 21.9228C4.6828 21.0334 3.53172 21.1118 3.53172 21.1118C3.92413 20.1439 5.17985 20.327 5.17985 20.327C4.57815 19.4637 3.45324 19.1498 3.45324 19.1498C4.15958 18.5481 5.12753 18.9667 5.12753 18.9667C4.83976 17.9987 3.71485 17.4493 3.71485 17.4493C4.60432 17.1615 5.46762 17.7371 5.46762 17.7371C5.36298 16.8738 4.42119 16.0628 4.42119 16.0628C5.46762 16.1151 6.17397 16.8738 6.17397 16.8738C6.17397 16.1151 5.65075 15.1995 5.65075 15.1995C6.4879 15.4611 7.2204 16.2982 7.2204 16.2982C7.29889 15.5919 7.11576 15.1733 7.11576 15.1733C8.50229 15.6965 9.39176 16.743 10.1243 17.9202C9.75801 15.7489 8.37148 14.1792 6.20013 13.9961C2.4068 13.6822 0 17.9725 0 21.1118C0 24.7744 1.25572 27.2335 2.90386 29.6141C4.8136 32.3872 8.10987 34.5062 11.1707 35.1341C10.1766 35.448 9.26095 36.2328 9.26095 37.1485C10.8568 37.2531 12.1648 37.9856 12.845 38.8489H18.4696C19.83 38.8489 21.0857 38.8228 21.5042 38.7181C22.5507 38.5088 23.0216 36.1544 24.2511 36.2067C25.4807 36.259 25.1144 38.2472 24.068 38.2995C23.7279 38.3257 23.571 38.1426 23.2832 38.0641C24.3819 40.7325 27.7044 37.724 26.1609 35.8666C27.966 35.9451 27.8352 38.2734 26.5795 38.5088C28.5415 38.692 29.1171 36.7561 28.2014 35.3434C27.312 33.9307 25.5069 34.1923 24.068 34.8725C22.6292 35.5527 21.3473 36.0759 20.3793 36.2067C19.6207 36.3113 18.862 36.259 18.3649 35.9712C16.8999 35.1079 19.516 33.6691 20.1439 33.2767C22.4722 31.864 24.9313 30.1897 25.1668 26.8411C25.3499 24.3558 24.4081 23.0477 23.6233 21.5043C22.9954 20.2485 22.3152 18.9667 22.2106 17.3447C22.0798 15.121 23.7018 13.4467 25.7162 13.5513C28.5154 13.6822 29.9542 15.9058 30.1373 18.705C30.2158 19.8038 29.9542 21.138 29.9019 22.2629C29.588 26.9196 31.8116 29.3002 34.3231 31.4716C36.5991 33.4598 38.8489 34.7417 41.6743 35.9451C41.8574 37.724 42.9562 39.7122 45.1014 38.7704C46.2001 40.6802 50.3335 40.3139 49.758 37.5409C49.4964 36.2328 47.5605 36.0497 47.7175 34.5847C47.7698 33.8784 48.6069 33.4859 49.3394 33.7476C50.1243 34.0092 50.4905 35.2126 50.4382 36.0759C51.6677 34.0092 50.412 31.0007 47.8744 31.6024C46.5664 31.9163 45.3106 34.1661 45.3106 34.1661C43.6625 33.2767 42.0929 32.3872 42.0929 32.3872C45.86 32.2041 48.2668 30.5298 49.6534 27.966C51.4846 28.3846 52.7142 27.1289 52.2171 25.6377C52.2171 25.6377 53.8129 26.1347 53.9961 27.4428C54.1792 28.7508 52.4264 29.0386 51.4585 28.4107C51.4585 28.4107 52.2956 30.399 53.8914 30.0065C55.4872 29.6141 55.3303 27.9137 54.964 27.2335C54.6239 26.5533 53.1589 25.2714 53.5513 24.4081C53.9176 23.5448 55.6704 24.1203 55.4088 26.3702C56.6906 24.5912 55.5657 21.7659 53.499 21.7659C51.9817 21.7659 51.38 23.0739 50.9876 24.4081C50.9876 24.4081 50.4905 24.225 49.9411 24.3558C49.6272 22.2106 48.2668 20.7979 46.0693 19.9346C44.1073 19.1759 42.1975 17.8417 42.0144 15.6965C41.9359 14.6763 42.2498 13.8653 42.9823 13.499C44.9444 12.5049 46.2524 14.6501 46.5925 16.0628C46.5664 14.3885 47.1942 13.6037 47.9529 12.7404C47.3512 11.7462 46.2001 10.8829 44.6305 11.0922C43.5579 11.223 42.5114 11.7986 42.5114 11.7986C43.0085 10.6475 43.898 8.60694 45.86 8.5023C47.4558 8.42382 48.2145 9.8365 48.6854 11.1969C48.947 8.60694 50.3335 6.80184 51.6154 5.44147C50.0981 6.33094 49.3394 4.44736 47.8744 4.44736C45.8077 4.44736 44.7874 6.74952 43.0347 6.95881C42.3022 7.03729 41.7528 6.51407 41.4388 6.27862C40.9679 5.83389 40.5232 4.4212 41.308 2.58994Z" fill="black"/>
<path d="M78.8228 14.964C78.8228 8.29299 75.3434 3.42707 69.8497 3.42707C69.091 3.42707 67.8091 3.45323 67.0766 3.50555V23.6233C67.1812 25.3499 68.2015 26.2655 70.6083 26.2655C76.3114 26.2394 78.8228 21.5566 78.8228 14.964ZM58.365 26.5271C59.0975 26.501 60.5625 26.3178 61.0334 26.1347C61.9229 25.7946 62.1584 25.1406 62.1584 24.3296V5.59842C62.1584 4.78743 61.8967 4.10725 61.0334 3.74099C60.1963 3.34858 59.176 3.19162 58.4958 3.11313V2.32831H70.5822C75.7097 2.32831 84.3689 4.97056 84.3689 14.9902C84.3689 23.5186 77.0701 27.3381 69.8497 27.3381H58.3389V26.5271H58.365Z" fill="black"/>
<path d="M85.4413 26.6056C86.0692 26.5795 86.5139 26.501 87.0109 26.3179C87.7173 26.1086 87.9527 25.5069 87.9527 24.6959V14.0484C87.9266 13.2898 87.5603 12.5049 87.0109 12.1125C86.5662 11.8248 85.8337 11.5631 85.1797 11.537V10.8306L91.9292 10.3859L92.1908 10.6475V13.1328H92.2693C93.8128 11.1446 95.4871 10.2289 97.1352 10.2289C98.5741 10.2289 99.8036 11.3539 99.8036 12.9497C99.8036 14.4147 98.9142 15.6181 97.5015 15.6181C96.1411 15.6181 95.1993 14.9641 95.1993 13.6037C95.1993 13.0805 95.4871 12.6619 95.5394 12.1648C93.8128 12.1648 92.6094 13.6037 92.217 14.2577V24.5128C92.217 25.3238 92.5832 25.8993 93.2111 26.1609C93.8389 26.4225 95.0162 26.5533 95.6179 26.6056V27.3382H85.4675V26.6056H85.4413Z" fill="black"/>
<path d="M110.687 16.7168C110.687 13.9961 110.347 11.0399 107.862 11.0399C105.847 11.0399 104.591 13.2374 104.487 16.7953L110.687 16.7168ZM99.9609 18.862C99.9609 14.31 102.865 10.1505 108.018 10.1505C113.303 10.1505 115.213 13.5252 115.213 17.2924V17.6848H104.513V18.0772C104.513 22.6292 105.978 25.9255 109.745 25.9255C112.309 25.9255 113.512 25.0098 114.873 22.6292L115.579 23.1001C114.271 25.7685 111.707 27.7829 108.359 27.7829C102.577 27.809 99.9609 23.7803 99.9609 18.862Z" fill="black"/>
<path d="M127.901 13.1851C128.084 12.9235 128.241 12.6096 128.241 12.3741C128.241 11.8509 126.697 11.4585 126.226 11.3538V10.6213H132.636V11.3277C130.831 11.8509 129.732 12.7142 129.078 13.499C128.607 14.0484 127.064 15.9843 125.703 17.6848C127.142 19.7776 129.654 23.8326 130.308 24.7482C131.066 25.8208 131.563 26.3179 133.081 26.5795V27.3381H124.186V26.5795C125.075 26.501 126.122 26.2394 126.122 25.847C126.122 25.6638 125.913 25.2191 125.677 24.8529C124.604 23.0478 123.767 21.8444 122.852 20.4317C121.858 21.6089 120.288 23.7018 119.529 24.8005C119.346 25.0621 119.241 25.3761 119.241 25.6115C119.241 26.1347 120.916 26.5272 121.413 26.6318V27.3643H115.003V26.658C116.809 26.1347 117.724 25.2714 118.378 24.4866C118.901 23.9111 120.863 21.3996 122.328 19.6207C121.439 18.3388 119.32 15.121 117.96 13.0543C117.018 11.6154 116.102 11.4062 115.291 11.4062V10.6475H123.872V11.4062C123.139 11.4062 122.145 11.6155 122.145 11.9294C122.145 12.1387 122.302 12.4003 122.485 12.7404C122.747 13.2113 123.924 15.0948 125.154 16.9261C126.069 15.7489 127.221 14.1792 127.901 13.1851Z" fill="black"/>
<path d="M143.153 16.7168C143.153 13.9961 142.812 11.0399 140.327 11.0399C138.313 11.0399 137.057 13.2374 136.952 16.7953L143.153 16.7168ZM132.4 18.862C132.4 14.31 135.304 10.1505 140.458 10.1505C145.742 10.1505 147.626 13.5252 147.626 17.2924V17.6848H136.926V18.0772C136.926 22.6292 138.391 25.9255 142.158 25.9255C144.722 25.9255 145.926 25.0098 147.286 22.6292L147.992 23.1001C146.658 25.7685 144.12 27.7829 140.772 27.7829C135.043 27.809 132.4 23.7803 132.4 18.862Z" fill="black"/>
<path d="M147.652 26.6056C148.28 26.5795 148.751 26.501 149.221 26.3179C149.928 26.1086 150.216 25.5069 150.216 24.6959V3.95029C150.189 3.06082 149.823 2.22368 149.221 1.83126C148.777 1.54349 147.312 1.17724 146.658 1.12491V0.392413L154.14 0L154.401 0.261609V24.4866C154.401 25.2976 154.741 25.8731 155.395 26.1609C155.945 26.3702 156.337 26.5271 157.017 26.6056V27.3381H147.678V26.6056H147.652Z" fill="black"/>
<path d="M61.6611 37.41V32.7796C61.6611 32.518 61.5565 32.3348 61.2949 32.1779C61.0856 32.0732 60.667 31.9947 60.4839 31.9686V31.707H64.4603V31.9686C64.2511 31.9947 63.8325 32.0471 63.6232 32.1255C63.3354 32.2302 63.2569 32.4395 63.2569 32.7011V37.2792C63.2569 38.4826 63.7017 39.4506 65.2713 39.4506C66.8671 39.4506 67.4688 38.3518 67.4688 37.2531V33.9568C67.4688 33.0412 67.338 32.5441 67.0764 32.361C66.8148 32.1779 66.1608 32.0209 65.9254 31.9947V31.7331H69.4047V31.9947C69.1955 32.0209 68.5938 32.1255 68.306 32.2825C68.0182 32.4918 67.9397 33.0412 67.9397 33.8783V37.3054C67.9397 39.2152 66.3178 40 64.9312 40C62.786 39.9738 61.6611 38.8489 61.6611 37.41Z" fill="black"/>
<path d="M73.3028 33.3551V37.5409C73.3028 38.4565 73.4336 38.9536 73.6952 39.1628C73.9045 39.3198 74.637 39.5291 74.8462 39.5291V39.7907H71.3668V39.5291C71.5761 39.5029 72.2563 39.346 72.4656 39.2152C72.7272 39.0059 72.8319 38.5088 72.8319 37.5932V33.4598C72.8319 33.0935 72.7272 32.7534 72.4656 32.518C72.204 32.2825 71.6546 32.0471 71.2622 31.9948V31.7332H73.9306L78.5611 37.6194V33.983C78.5611 33.1197 78.4303 32.5703 78.1687 32.361C77.9594 32.204 77.253 32.0209 77.0176 31.9948V31.7332H80.497V31.9948C80.2877 32.0209 79.6337 32.1256 79.3982 32.3087C79.1105 32.518 79.032 33.0674 79.032 33.9045V39.8692H78.4303L73.3028 33.3551Z" fill="black"/>
<path d="M82.9302 39.5291C83.1395 39.5291 83.6365 39.4506 83.7935 39.3983C84.0813 39.2937 84.1597 39.0844 84.1597 38.8228V32.7534C84.1597 32.4918 84.0813 32.3087 83.7935 32.1779C83.5842 32.0994 83.1656 31.9686 82.9302 31.9425V31.6808H86.9328V31.9425C86.7235 31.9686 86.2788 32.0471 86.0695 32.0994C85.7817 32.2041 85.7032 32.4133 85.7032 32.675V38.7443C85.7032 39.0059 85.8079 39.189 86.0695 39.3198C86.2003 39.3721 86.7235 39.4768 86.9328 39.5029V39.7646H82.9302V39.5291Z" fill="black"/>
<path d="M90.2026 32.8319C90.0979 32.5442 89.9671 32.361 89.6794 32.1779C89.4701 32.0471 89.1561 31.9686 88.8945 31.9425V31.6808H92.871V31.9425C92.217 32.0209 91.7461 32.1517 91.7461 32.3872C91.7461 32.4657 91.7722 32.5965 91.7984 32.675C91.9292 33.0674 92.9495 35.9712 93.6558 37.9856C94.179 36.7299 94.9377 34.8986 95.147 34.2969C95.4609 33.4598 95.6964 32.9366 95.6964 32.5442C95.6964 32.1779 94.9377 31.9948 94.336 31.9425V31.6808H97.5276V31.9425C97.2922 31.9425 96.9782 32.0471 96.769 32.1779C96.4289 32.3872 96.2719 32.7273 96.1149 33.1197C95.7487 33.983 93.9959 38.1687 93.2896 39.8692H92.6617C91.8769 37.567 90.4903 33.6691 90.2026 32.8319Z" fill="black"/>
<path d="M99.385 39.5291C99.5943 39.5029 100.144 39.4506 100.301 39.3721C100.588 39.2675 100.667 39.0582 100.667 38.7966V32.7796C100.667 32.518 100.588 32.3087 100.301 32.204C100.065 32.0994 99.5943 31.9947 99.385 31.9686V31.707H106.108V33.669H105.794C105.664 33.1458 105.036 32.1779 104.46 32.0994C104.172 32.0732 103.859 32.0471 103.492 32.0471H102.237V35.4218H103.126C103.78 35.4218 103.989 35.2125 104.146 35.0556C104.356 34.8463 104.513 34.2707 104.539 33.9568H104.853V37.2792H104.539C104.513 36.913 104.303 36.2851 104.146 36.1282C103.989 35.945 103.754 35.7619 103.126 35.7619H102.237V38.378C102.237 39.2936 102.446 39.4244 103.571 39.4244C104.329 39.4244 105.114 39.4244 105.402 39.1628C105.821 38.7442 106.265 37.8025 106.422 37.41H106.71L106.553 39.7907H99.3589V39.5291H99.385Z" fill="black"/>
<path d="M112.91 35.5527C113.957 35.5527 114.846 35.1341 114.846 33.7737C114.846 32.4918 114.114 32.0471 113.172 32.0471H112.439V35.5527H112.91ZM114.715 37.9333C114.585 36.8345 114.349 35.8927 113.12 35.8927H112.439V38.7704C112.439 39.0321 112.518 39.2413 112.806 39.346C112.963 39.3983 113.433 39.4768 113.669 39.503V39.7646H109.64V39.503C109.849 39.503 110.373 39.4245 110.503 39.3721C110.791 39.2675 110.87 39.0582 110.87 38.7704V32.7273C110.87 32.4657 110.791 32.2302 110.503 32.1256C110.294 32.0471 109.849 31.9686 109.64 31.9425V31.6808H113.852C115.343 31.6808 116.625 32.2302 116.625 33.5121C116.625 34.794 115.396 35.3434 114.454 35.605V35.7096C115.029 35.7881 115.971 36.0759 116.207 36.9392C116.39 37.5932 116.442 38.0903 116.599 38.6658C116.73 39.1367 116.965 39.2152 117.174 39.2152C117.462 39.2152 117.724 38.8751 117.724 38.1426V37.881H118.064V38.1426C118.038 39.189 117.619 39.8692 116.442 39.8692C115.396 39.9215 114.898 39.346 114.715 37.9333Z" fill="black"/>
<path d="M121.596 39.346L121.203 39.8954H120.811L120.732 37.0438H121.02C121.491 38.2472 122.328 39.5814 123.715 39.5814C124.709 39.5814 125.206 38.9536 125.206 38.1164C125.206 37.4101 124.787 36.913 123.976 36.6253C123.375 36.3898 122.904 36.2328 122.354 36.0236C121.386 35.605 120.942 34.8725 120.942 33.826C120.942 32.5703 121.936 31.55 123.479 31.55C124.212 31.55 124.944 31.8378 125.363 32.1256L125.729 31.6285H126.148L126.2 34.3754H125.938C125.415 32.9104 124.709 31.9425 123.479 31.9425C122.878 31.9425 122.276 32.3872 122.276 33.1982C122.276 33.9045 122.668 34.3231 123.427 34.6632C123.976 34.9248 124.526 35.0818 124.997 35.2911C125.965 35.7096 126.592 36.259 126.592 37.5147C126.592 38.9536 125.415 40 123.741 40C122.616 39.9477 121.988 39.6076 121.596 39.346Z" fill="black"/>
<path d="M129.68 39.5291C129.889 39.5291 130.386 39.4506 130.543 39.3983C130.831 39.2937 130.909 39.0844 130.909 38.8228V32.7534C130.909 32.4918 130.831 32.3087 130.543 32.1779C130.334 32.0994 129.915 31.9686 129.68 31.9425V31.6808H133.682V31.9425C133.473 31.9686 133.028 32.0471 132.819 32.0994C132.531 32.2041 132.453 32.4133 132.453 32.675V38.7443C132.453 39.0059 132.557 39.189 132.819 39.3198C132.95 39.3721 133.473 39.4768 133.682 39.5029V39.7646H129.68V39.5291Z" fill="black"/>
<path d="M138.077 39.5291C138.286 39.5291 138.888 39.4244 139.045 39.3721C139.333 39.2675 139.411 39.032 139.411 38.7704V32.0471H138.993C138.731 32.0471 138.365 32.0471 138.077 32.0994C137.554 32.1779 136.926 33.3028 136.795 33.826H136.507V31.707H143.911V33.826H143.623C143.492 33.3028 142.838 32.1779 142.341 32.0994C142.08 32.0732 141.739 32.0471 141.426 32.0471H141.007V38.7181C141.007 38.9797 141.085 39.189 141.373 39.3198C141.504 39.3721 142.106 39.5029 142.341 39.5291V39.7907H138.129V39.5291H138.077Z" fill="black"/>
<path d="M147.94 39.5291C148.149 39.5291 148.751 39.4506 148.908 39.3983C149.195 39.2937 149.274 39.0582 149.274 38.7966V36.9392C149.274 36.5729 149.169 36.3375 148.934 35.8666C148.515 35.0294 147.757 33.6429 147.364 32.9627C147.155 32.5965 146.893 32.3349 146.632 32.1517C146.422 32.0471 146.108 31.9686 145.873 31.9425V31.6808H150.059V31.9425C149.64 31.9686 148.882 32.0733 148.882 32.3349C148.882 32.4657 149.797 34.2708 150.713 35.8404C151.236 34.9771 152.596 32.7273 152.596 32.4657C152.596 32.0994 151.916 31.9686 151.393 31.9425V31.6808H154.428V31.9425C154.218 31.9686 153.904 32.0733 153.747 32.1779C153.434 32.361 153.25 32.5442 153.015 32.8842C152.649 33.3813 151.785 34.8725 151.262 35.7881C150.948 36.3375 150.87 36.7037 150.87 37.2531V38.7181C150.87 38.9797 150.974 39.189 151.236 39.3198C151.367 39.3721 151.995 39.503 152.204 39.5291V39.7907H147.966V39.5291H147.94Z" fill="black"/>
</svg>
