<svg width="42" height="40" viewBox="0 0 42 40" fill="none" xmlns="http://www.w3.org/2000/svg">
<g clip-path="url(#clip0_16_50)">
<path fill-rule="evenodd" clip-rule="evenodd" d="M20.5098 1.06035e-05C15.6359 -0.00494312 10.9195 1.72596 7.20584 4.88252C3.49219 8.03909 1.02402 12.415 0.243651 17.226C-0.536723 22.0371 0.421708 26.9688 2.94719 31.1374C5.47267 35.3059 9.40011 38.4389 14.0257 39.9748C15.0581 40.1637 15.4232 39.5216 15.4232 38.9802C15.4232 38.4388 15.4232 37.2049 15.4232 35.4926C9.69457 36.7391 8.48589 32.7353 8.48589 32.7353C8.10584 31.4944 7.29845 30.4283 6.20701 29.7262C4.3562 28.4671 6.35809 28.4671 6.35809 28.4671C7.00688 28.5588 7.6263 28.7968 8.16946 29.1633C8.71262 29.5298 9.16527 30.015 9.49312 30.5823C9.7717 31.0874 10.1473 31.5326 10.5983 31.8922C11.0494 32.2518 11.567 32.5189 12.1214 32.6779C12.6759 32.837 13.2564 32.8851 13.8295 32.8193C14.4025 32.7535 14.957 32.5752 15.461 32.2946C15.54 31.2589 15.9866 30.2854 16.7201 29.5499C12.1623 29.0337 7.37792 27.271 7.37792 19.4775C7.34663 17.4416 8.09946 15.4716 9.48053 13.9755C8.86543 12.2053 8.93732 10.2687 9.68198 8.54896C9.68198 8.54896 11.4069 7.99497 15.3225 10.6516C18.6849 9.72838 22.234 9.72838 25.5964 10.6516C29.512 7.99497 31.2243 8.54896 31.2243 8.54896C31.9793 10.2505 32.0692 12.1732 31.4761 13.9377C32.8572 15.4339 33.61 17.4038 33.5787 19.4397C33.5787 27.3214 28.7818 29.0463 24.2114 29.5121C24.7015 30.0048 25.0799 30.597 25.321 31.2487C25.5622 31.9004 25.6603 32.5963 25.609 33.2893C25.609 36.034 25.609 38.2499 25.609 38.9172C25.609 39.5845 25.9741 40.1007 27.0191 39.8993C31.592 38.3229 35.4606 35.181 37.9415 31.0286C40.4224 26.8763 41.3559 21.9807 40.5771 17.2068C39.7982 12.4329 37.3572 8.08785 33.6852 4.9393C30.0133 1.79074 25.3466 0.0412938 20.5098 1.06035e-05Z" fill="black"/>
</g>
<defs>
<clipPath id="clip0_16_50">
<rect width="41.0198" height="40" fill="white"/>
</clipPath>
</defs>
</svg>
